<svg width="220" height="60" viewBox="0 0 220 60" xmlns="http://www.w3.org/2000/svg">
  <defs>
    <!-- Ocean gradient - darker blue -->
    <radialGradient id="oceanGradient" cx="50%" cy="50%" r="60%">
      <stop offset="0%" style="stop-color:#1e3a8a;stop-opacity:1" />
      <stop offset="50%" style="stop-color:#1e40af;stop-opacity:1" />
      <stop offset="100%" style="stop-color:#1e3a8a;stop-opacity:1" />
    </radialGradient>
    <!-- Land gradient - lighter blue -->
    <linearGradient id="landGradient" x1="0%" y1="0%" x2="100%" y2="100%">
      <stop offset="0%" style="stop-color:#3b82f6;stop-opacity:1" />
      <stop offset="100%" style="stop-color:#2563eb;stop-opacity:1" />
    </linearGradient>
    <!-- Globe highlight for glossy 3D effect -->
    <radialGradient id="globeHighlight" cx="35%" cy="30%" r="50%">
      <stop offset="0%" style="stop-color:#ffffff;stop-opacity:0.25" />
      <stop offset="50%" style="stop-color:#93c5fd;stop-opacity:0.15" />
      <stop offset="100%" style="stop-color:#ffffff;stop-opacity:0" />
    </radialGradient>
    <!-- Shadow for depth -->
    <radialGradient id="globeShadow" cx="60%" cy="70%" r="50%">
      <stop offset="0%" style="stop-color:#000000;stop-opacity:0.2" />
      <stop offset="100%" style="stop-color:#000000;stop-opacity:0" />
    </radialGradient>
  </defs>
  
  <!-- Globe Icon -->
  <g transform="translate(5, 8)">
    <!-- Globe base - darker blue ocean -->
    <circle cx="26" cy="22" r="18" fill="url(#oceanGradient)"/>
    
    <!-- Europe - lighter blue landmass -->
    <path d="M 15 10 
             Q 18 8 20 10 
             Q 22 12 25 11 
             Q 28 10 30 12 
             Q 32 14 34 12 
             Q 36 10 38 12 
             Q 40 14 37 16 
             Q 34 18 30 16 
             Q 26 14 22 16 
             Q 18 18 15 16 
             Z" 
          fill="url(#landGradient)" 
          opacity="0.9"/>
    
    <!-- Africa - lighter blue landmass -->
    <path d="M 20 16 
             Q 22 15 24 16 
             Q 26 18 25 20 
             Q 24 22 23 24 
             Q 22 26 20 28 
             Q 18 30 16 28 
             Q 14 26 15 24 
             Q 16 22 17 20 
             Q 18 18 20 16 
             Z" 
          fill="url(#landGradient)" 
          opacity="0.85"/>
    
    <!-- Additional Africa detail -->
    <path d="M 22 18 
             Q 24 17 26 19 
             Q 27 21 26 23 
             Q 25 25 23 26 
             Q 21 25 20 23 
             Q 19 21 20 19 
             Z" 
          fill="#60a5fa" 
          opacity="0.7"/>
    
    <!-- Asia (partially visible on right) - lighter blue -->
    <path d="M 32 12 
             Q 35 10 38 12 
             Q 40 14 39 16 
             Q 38 18 36 17 
             Q 34 16 32 15 
             Z" 
          fill="url(#landGradient)" 
          opacity="0.8"/>
    
    <!-- Additional Asian landmass -->
    <path d="M 35 14 
             Q 37 13 39 15 
             Q 40 17 38 18 
             Q 36 17 35 16 
             Z" 
          fill="#60a5fa" 
          opacity="0.75"/>
    
    <!-- Subtle grid lines for globe effect -->
    <ellipse cx="26" cy="22" rx="18" ry="5" fill="none" stroke="#3b82f6" stroke-width="0.3" opacity="0.2"/>
    <ellipse cx="26" cy="22" rx="18" ry="9" fill="none" stroke="#3b82f6" stroke-width="0.3" opacity="0.15"/>
    <ellipse cx="26" cy="22" rx="18" ry="13" fill="none" stroke="#3b82f6" stroke-width="0.3" opacity="0.1"/>
    <line x1="8" y1="22" x2="44" y2="22" stroke="#3b82f6" stroke-width="0.3" opacity="0.15"/>
    
    <!-- Globe shadow for depth -->
    <circle cx="26" cy="22" r="18" fill="url(#globeShadow)"/>
    
    <!-- Glossy highlight overlay for 3D effect -->
    <circle cx="26" cy="22" r="18" fill="url(#globeHighlight)"/>
  </g>
  
  <!-- SAFEN Text - Dark professional blue, bold sans-serif -->
  <text x="58" y="32" font-family="Arial, Helvetica, sans-serif" font-size="28" font-weight="bold" fill="#1e40af" letter-spacing="0.3">SAFEN</text>
  
  <!-- CYBERSECURITY Text - Light gray, smaller, sans-serif -->
  <text x="58" y="46" font-family="Arial, Helvetica, sans-serif" font-size="12" font-weight="normal" fill="#6b7280" letter-spacing="0.2">CYBERSECURITY</text>
</svg>
